<svg xmlns="http://www.w3.org/2000/svg" viewBox="0 0 194.484 202.4">
  <defs>
    <style>
      .cls-1, .cls-3 {
        fill: #f3f3f3;
      }

      .cls-1 {
        opacity: 0.338;
      }

      .cls-2 {
        fill: #fff;
        stroke: #707070;
        opacity: 0.6;
      }

      .cls-2, .cls-5, .cls-6, .cls-7 {
        stroke-width: 5px;
      }

      .cls-4 {
        fill: #95989a;
        opacity: 0.104;
      }

      .cls-10, .cls-5, .cls-6, .cls-7 {
        fill: none;
      }

      .cls-5, .cls-6 {
        stroke: #8db23a;
      }

      .cls-6 {
        opacity: 0.5;
      }

      .cls-7 {
        stroke: #95989a;
        opacity: 0.2;
      }

      .cls-8 {
        fill: rgba(149,152,154,0.17);
        stroke: #f3f3f3;
        stroke-width: 2px;
      }

      .cls-9 {
        stroke: none;
      }
    </style>
  </defs>
  <g id="Group_222" data-name="Group 222" transform="translate(-858.516 -205.6)">
    <g id="Group_221" data-name="Group 221">
      <g id="Group_220" data-name="Group 220">
        <circle id="Ellipse_17" data-name="Ellipse 17" class="cls-1" cx="97.242" cy="97.242" r="97.242" transform="translate(858.516 213.516)"/>
        <g id="Rectangle_164" data-name="Rectangle 164" class="cls-2" transform="translate(896 205.6)">
          <rect class="cls-9" width="119.874" height="178.4" rx="5"/>
          <rect class="cls-10" x="2.5" y="2.5" width="114.874" height="173.4" rx="2.5"/>
        </g>
        <rect id="Rectangle_203" data-name="Rectangle 203" class="cls-3" width="104" height="136" rx="5" transform="translate(904 216)"/>
        <path id="Rectangle_165" data-name="Rectangle 165" class="cls-4" d="M0,0H116.019a0,0,0,0,1,0,0V4.492a5,5,0,0,1-5,5H5a5,5,0,0,1-5-5V0A0,0,0,0,1,0,0Z" transform="translate(898.284 373.908)"/>
        <path id="Path_67" data-name="Path 67" class="cls-5" d="M2080-4819l16,16,32-32" transform="translate(-1142 5105)"/>
        <path id="Path_68" data-name="Path 68" class="cls-6" d="M2080-4827l8,8,16-16" transform="translate(-1165 5091)"/>
        <path id="Path_69" data-name="Path 69" class="cls-6" d="M2080-4827l8,8,16-16" transform="translate(-1107 5063)"/>
        <line id="Line_24" data-name="Line 24" class="cls-7" x2="32" transform="translate(880 224)"/>
        <line id="Line_25" data-name="Line 25" class="cls-7" x2="32" transform="translate(1000 284)"/>
        <g id="Ellipse_16" data-name="Ellipse 16" class="cls-8" transform="translate(948 355)">
          <circle class="cls-9" cx="8" cy="8" r="8"/>
          <circle class="cls-10" cx="8" cy="8" r="7"/>
        </g>
        <path id="Path_70" data-name="Path 70" class="cls-6" d="M2080-4827l8,8,16-16" transform="translate(-1106 5153)"/>
        <path id="Path_71" data-name="Path 71" class="cls-6" d="M2080-4827l8,8,16-16" transform="translate(-1165 5158)"/>
        <line id="Line_26" data-name="Line 26" class="cls-7" x2="32" transform="translate(880 363)"/>
      </g>
    </g>
  </g>
</svg>
