<svg version="1" xmlns="http://www.w3.org/2000/svg" width="666.667" height="666.667" viewBox="0 0 500.000000 500.000000"><path d="M0 250v250h500V0H0v250zm347-138.1c0 .4-9.7 24.6-21.6 53.7-11.8 29.1-23.6 58.2-26.2 64.8l-4.7 11.8-7-.6c-9.4-.9-27.8-5.1-38.4-8.8-34.5-12-60.8-33.3-78.3-63.1-8.3-14.2-16.4-37.7-18.3-53l-.7-5.7h97.6c54.7 0 97.6.4 97.6.9zM226.8 260.1c49 9.8 85.6 36.6 105.7 77.4 8.2 16.7 14.5 37.3 14.5 47.5v3h-97.6c-77.7 0-97.5-.3-97.1-1.3.3-.6 7.6-18.5 16.2-39.7 8.5-21.2 17.5-43.2 20-49 2.4-5.8 6.6-16.1 9.3-23 8-20.1 6.7-18.3 13.2-17.6 3 .3 10.1 1.6 15.8 2.7z"/></svg>